<?xml version="1.0" standalone="no"?><!DOCTYPE svg PUBLIC "-//W3C//DTD SVG 1.1//EN" "http://www.w3.org/Graphics/SVG/1.1/DTD/svg11.dtd"><svg t="1599050907444" class="icon" viewBox="0 0 1024 1024" version="1.1" xmlns="http://www.w3.org/2000/svg" p-id="2200" xmlns:xlink="http://www.w3.org/1999/xlink" width="200" height="200"><defs><style type="text/css"></style></defs><path d="M862.097109 95.62065H162.439407c-36.755435 0-66.550498 29.796087-66.550499 66.550499v699.657702c0 36.755435 29.796087 66.550498 66.550499 66.550499h699.657702c36.755435 0 66.550498-29.796087 66.550498-66.550499V162.171149c0-36.755435-29.796087-66.550498-66.550498-66.550499z m-699.657702 46.437296h699.657702c11.090726 0 20.113203 9.022477 20.113203 20.113203v483.722335l-98.331898-116.476171a60.723567 60.723567 0 0 0-44.889181-21.518998c-17.296495-0.430032-34.060569 6.612251-45.882349 19.30331L543.184475 688.147184c-2.997936 3.219095-6.597917 3.37063-8.472651 3.175068-1.87883-0.195562-5.367207-1.08839-7.63716-4.856288l-163.964996-272.2122c-9.388005-15.586606-25.855152-25.024781-44.048571-25.249013-18.213896-0.220135-34.888892 8.807462-44.656758 24.158575L142.326203 620.712048V162.171149c0-11.090726 9.022477-20.113203 20.113204-20.113203z m699.657702 739.884108H162.439407c-11.090726 0-20.113203-9.022477-20.113204-20.113203V707.207833l171.25506-269.114947c1.417057-2.225927 3.417729-2.674388 4.908506-2.654935 1.456989 0.01843 3.479162 0.51399 4.841954 2.774729L487.294671 710.425904c9.246708 15.352137 24.772905 25.224439 42.598749 27.082791 2.01603 0.209896 4.022845 0.314333 6.017374 0.314333 15.639848-0.001024 30.419633-6.39314 41.253364-18.024477l149.922408-160.945559c3.799638-4.077111 8.381525-4.595197 10.77025-4.530692 2.391796 0.058361 6.941943 0.791463 10.537828 5.05185l133.815668 158.507687v143.947014c0 11.090726-9.023501 20.113203-20.113203 20.113203z" fill="" p-id="2201"></path><path d="M642.642648 250.366583c28.593022 0 51.855696 23.262675 51.855696 51.855696s-23.262675 51.855696-51.855696 51.855696-51.855696-23.261651-51.855696-51.855696 23.262675-51.855696 51.855696-51.855696m0-46.437295c-54.285376 0-98.292991 44.007615-98.292991 98.292991s44.007615 98.292991 98.292991 98.292991 98.292991-44.007615 98.292991-98.292991-44.007615-98.292991-98.292991-98.292991z" fill="" p-id="2202"></path></svg>