<?xml version="1.0" standalone="no"?><!DOCTYPE svg PUBLIC "-//W3C//DTD SVG 1.1//EN" "http://www.w3.org/Graphics/SVG/1.1/DTD/svg11.dtd"><svg t="1599050966697" class="icon" viewBox="0 0 1024 1024" version="1.1" xmlns="http://www.w3.org/2000/svg" p-id="2397" xmlns:xlink="http://www.w3.org/1999/xlink" width="200" height="200"><defs><style type="text/css"></style></defs><path d="M679.163207 855.17085c-13.667278 0-27.406187-3.294023-40.104393-9.970072l-112.983237-59.401902a30.210046 30.210046 0 0 0-28.152177 0l-112.983237 59.401902c-29.194926 15.344476-63.899332 12.839423-90.581018-6.550183-26.678616-19.384489-39.791262-51.615565-34.217313-84.117816l21.579481-125.811404a30.248931 30.248931 0 0 0-8.701173-26.779923l-91.403756-89.092108c-23.61586-23.022343-31.955806-56.806797-21.76163-88.172155 10.191106-31.364335 36.792974-53.79623 69.429279-58.539255l126.317941-18.356066a30.230512 30.230512 0 0 0 22.777773-16.547885l56.494688-114.460891c14.59337-29.572526 44.149523-47.944965 77.126588-47.944965s62.533218 18.372439 77.126588 47.944965l56.494689 114.460891a30.238698 30.238698 0 0 0 22.777773 16.547885l126.312824 18.356066c32.638351 4.743024 59.244312 27.173896 69.437465 58.539255 10.188037 31.364335 1.851161 65.149812-21.764699 88.169085l-91.403757 89.097224a30.248931 30.248931 0 0 0-8.701172 26.78197l21.574364 125.806287c5.575995 32.502251-7.53051 64.733327-34.212196 84.117817-15.080463 10.956539-32.723286 16.521279-50.479695 16.521278zM512 726.559681a85.971024 85.971024 0 0 1 40.027645 9.883091l112.983238 59.401901c10.417257 5.482875 22.325471 4.617158 31.854498-2.303462 9.523911-6.92062 14.021342-17.980513 12.034081-29.583782l-21.574364-125.812427a86.0007 86.0007 0 0 1 24.732287-76.129888l91.403756-89.097224c8.435113-8.219195 11.293207-19.812231 7.656377-31.010271-3.637854-11.19804-12.768815-18.895349-24.422225-20.588921l-126.312824-18.356067a85.98842 85.98842 0 0 1-64.759933-47.052642l-56.494689-114.460891c-5.210675-10.56052-15.355733-16.864086-27.127847-16.864087-11.772115 0-21.917172 6.302543-27.127847 16.864087l-56.488549 114.460891a85.998653 85.998653 0 0 1-64.763003 47.052642L237.304707 421.318698c-11.652388 1.693572-20.781302 9.387811-24.422225 20.585851-3.6399 11.20111-0.775666 22.794146 7.656377 31.016411l91.403756 89.092107a86.015026 86.015026 0 0 1 24.737404 76.131935L315.100538 763.958452c-1.990331 11.603269 2.5071 22.663162 12.034081 29.583782 9.525957 6.915503 21.443381 7.78122 31.859615 2.303463l112.977097-59.401902a85.97921 85.97921 0 0 1 40.028669-9.884114z" p-id="2398"></path></svg>