<?xml version="1.0" standalone="no"?><!DOCTYPE svg PUBLIC "-//W3C//DTD SVG 1.1//EN" "http://www.w3.org/Graphics/SVG/1.1/DTD/svg11.dtd"><svg t="1599051014345" class="icon" viewBox="0 0 1024 1024" version="1.1" xmlns="http://www.w3.org/2000/svg" p-id="2642" xmlns:xlink="http://www.w3.org/1999/xlink" width="200" height="200"><defs><style type="text/css"></style></defs><path d="M311.456544 868.040972a27.850301 27.850301 0 0 1-13.868868-3.697205 27.871791 27.871791 0 0 1-14.008039-24.612561l1.529843-99.178837c-43.221384-28.554336-78.233805-64.187905-104.208387-106.105596-29.145807-46.918589-43.932582-98.378611-43.932582-152.925948 0-59.606563 17.21508-115.242697 51.166334-165.363212 33.463136-49.412386 79.549777-88.956008 136.971581-117.529787 56.954153-28.314883 119.825063-42.668799 186.872085-42.668798 67.041906 0 129.917932 14.353916 186.880271 42.663682 0 0.00307 0.005117 0.005117 0.011256 0.005116 57.381895 28.554336 103.464443 68.092841 136.969535 117.521601 33.967626 50.15326 51.190893 105.639992 51.190892 164.930353 0 59.279105-17.206894 114.891703-51.141774 165.292604-33.493835 49.774637-79.597873 89.49222-137.023769 118.052696-56.924477 28.309766-119.80562 42.663682-186.885388 42.663682-26.050306 0-52.55189-2.690272-78.939887-8.009418l-107.135042 64.928778a27.903513 27.903513 0 0 1-14.448061 4.03285z m200.52299-656.323013c-58.356083 0-112.876814 12.393261-162.03849 36.833907-48.713468 24.239054-87.621617 57.506738-115.637694 98.873891-27.975145 41.299615-41.573861 85.160565-41.573861 134.094045 0 43.991933 11.960403 85.552491 35.551704 123.530454 23.986297 38.70144 57.403385 71.134107 99.33745 96.410793a27.876907 27.876907 0 0 1 13.485129 24.307616l-0.993631 64.428381 73.516364-44.552705a27.960819 27.960819 0 0 1 20.700461-3.326768c25.984814 5.979178 52.115961 9.012258 77.654614 9.012257 58.388828 0 112.912629-12.393261 162.054863-36.83186 48.669466-24.204262 87.564311-57.599859 115.596762-99.255584 28.021194-41.620933 41.639353-85.501326 41.639352-134.162606 0-48.615231-13.601786-92.331895-41.590234-133.649929-28.048823-41.381479-66.954925-74.648141-115.63974-98.873892-49.184189-24.444738-103.706967-36.838-162.063049-36.838z" p-id="2643"></path><path d="M357.284289 527.901155c-9.223059 9.223059-20.414959 13.823843-33.531697 13.823843-13.160741 0-24.330128-4.600785-33.553187-13.823843-9.223059-9.223059-13.823843-20.260439-13.823844-33.133631 0-12.850679 4.600785-23.88806 13.823844-33.111119 9.223059-9.223059 20.393469-13.846356 33.553187-13.846356 13.115716 0 24.307615 4.622274 33.531697 13.846356 9.223059 9.223059 13.846356 20.260439 13.846356 33.111119-0.001023 12.873192-4.623297 23.910573-13.846356 33.133631zM545.112142 527.901155c-9.223059 9.223059-20.260439 13.823843-33.133631 13.823843s-23.88806-4.600785-33.111119-13.823843c-9.223059-9.223059-13.823843-20.260439-13.823844-33.133631 0-12.850679 4.600785-23.88806 13.823844-33.111119 9.223059-9.223059 20.237927-13.846356 33.111119-13.846356s23.909549 4.622274 33.133631 13.846356c9.223059 9.223059 13.846356 20.260439 13.846356 33.111119 0 12.873192-4.623297 23.910573-13.846356 33.133631zM733.781152 527.901155c-9.223059 9.223059-20.414959 13.823843-33.531697 13.823843-13.160741 0-24.330128-4.600785-33.553187-13.823843-9.223059-9.223059-13.823843-20.260439-13.823844-33.133631 0-12.850679 4.600785-23.88806 13.823844-33.111119 9.223059-9.223059 20.393469-13.846356 33.553187-13.846356 13.115716 0 24.307615 4.622274 33.531697 13.846356 9.223059 9.223059 13.846356 20.260439 13.846357 33.111119 0 12.873192-4.623297 23.910573-13.846357 33.133631z" p-id="2644"></path></svg>