<?xml version="1.0" standalone="no"?><!DOCTYPE svg PUBLIC "-//W3C//DTD SVG 1.1//EN" "http://www.w3.org/Graphics/SVG/1.1/DTD/svg11.dtd"><svg t="1599050656209" class="icon" viewBox="0 0 1024 1024" version="1.1" xmlns="http://www.w3.org/2000/svg" p-id="837" xmlns:xlink="http://www.w3.org/1999/xlink" width="200" height="200"><defs><style type="text/css"></style></defs><path d="M904.064121 510.071c-12.82314 0-23.218648 10.395508-23.218648 23.218648V862.288576c0 11.108132-9.005071 20.113203-20.113203 20.113203H162.438383c-11.108132 0-20.113203-9.005071-20.113203-20.113203V533.289648c0-12.82314-10.395508-23.218648-23.218648-23.218648s-23.218648 10.395508-23.218647 23.218648V862.288576c0 36.755435 29.796087 66.550498 66.550498 66.550498h698.292863c36.755435 0 66.550498-29.796087 66.550498-66.550498V533.289648c0.001024-12.82314-10.394484-23.218648-23.217623-23.218648z" fill="" p-id="838"></path><path d="M710.225223 470.978034c-9.067528-9.067528-23.768474-9.067528-32.836003 0l-40.343129 40.34313-0.010239-0.010239-101.548947 101.548947V118.616091c0-12.82314-10.395508-23.218648-23.218647-23.218648s-23.218648 10.395508-23.218648 23.218648V612.675572L344.614203 468.241189c-9.067528-9.067528-23.768474-9.067528-32.836002 0-9.067528 9.067528-9.067528 23.768474 0 32.836002l42.849601 42.849601-0.220136 0.220136 134.231366 134.230342 0.067577 0.067576c6.019422 6.002016 14.323132 9.7136 23.495096 9.7136 8.365143 0 16.004352-3.094181 21.850737-8.191082a33.583439 33.583439 0 0 0 3.23343-3.23343l7.126242-7.126242 0.010239 0.010239 165.803894-165.803894c9.066505-9.067528 9.066505-23.768474-0.001024-32.836003z" fill="" p-id="839"></path></svg>